<svg width="147" height="143" viewBox="0 0 147 143" fill="none" xmlns="http://www.w3.org/2000/svg">
<g clip-path="url(#clip0_403_1238)">
<path d="M92.418 11.04C103.417 11.04 112.42 13.9113 119.428 19.654C126.533 25.2993 131.643 32.4047 134.758 40.97C137.97 49.5353 139.576 58.2953 139.576 67.25C139.576 77.8593 137.873 87.544 134.466 96.304C131.059 104.967 125.901 111.926 118.99 117.182C112.177 122.341 103.806 124.92 93.878 124.92C84.0473 124.92 75.5307 122.341 68.328 117.182C61.1253 111.926 55.626 104.918 51.83 96.158C48.1313 87.398 46.2333 77.762 46.136 67.25C46.136 65.6927 46.2333 63.2593 46.428 59.95H27.74V113.24C27.74 115.187 28.2267 116.695 29.2 117.766C30.2707 118.739 31.7307 119.226 33.58 119.226C35.1373 119.226 36.8407 118.934 38.69 118.35V122H5.84V118.35C7.68933 118.934 9.39267 119.226 10.95 119.226C12.7993 119.226 14.2107 118.739 15.184 117.766C16.2547 116.695 16.79 115.187 16.79 113.24V22.72C16.79 20.7733 16.2547 19.3133 15.184 18.34C14.2107 17.2693 12.7993 16.734 10.95 16.734C9.39267 16.734 7.68933 17.026 5.84 17.61V13.96H38.69V17.61C36.8407 17.026 35.1373 16.734 33.58 16.734C31.7307 16.734 30.2707 17.2693 29.2 18.34C28.2267 19.3133 27.74 20.7733 27.74 22.72V57.322H46.866C47.9367 49.6327 50.1753 42.284 53.582 35.276C57.086 28.268 62.05 22.4767 68.474 17.902C74.9953 13.3273 82.9767 11.04 92.418 11.04ZM93.878 122C105.655 122 114.172 116.939 119.428 106.816C124.781 96.596 127.409 83.4073 127.312 67.25C127.215 58.8793 125.901 50.606 123.37 42.43C120.937 34.254 117.092 27.4893 111.836 22.136C106.677 16.6853 100.205 13.96 92.418 13.96C84.534 13.96 78.0613 16.9287 73 22.866C67.9387 28.706 64.24 35.86 61.904 44.328C59.6653 52.796 58.546 60.972 58.546 68.856C58.546 78.784 59.8113 87.7387 62.342 95.72C64.97 103.701 68.912 110.077 74.168 114.846C79.5213 119.615 86.0913 122 93.878 122Z" fill="white"/>
<path d="M76.706 61.702C80.21 61.994 84.3467 63.0647 89.116 64.914C93.9827 66.666 98.2653 69.44 101.964 73.236C105.663 77.032 107.512 81.7527 107.512 87.398C107.512 95.1847 105.565 101.706 101.672 106.962C97.876 112.121 92.912 115.917 86.78 118.35C80.7453 120.783 74.37 122 67.654 122H29.84V118.35C31.6893 118.934 33.344 119.226 34.804 119.226C38.6 119.226 40.5953 117.231 40.79 113.24V22.72C40.5953 18.7293 38.6 16.734 34.804 16.734C33.344 16.734 31.6893 17.026 29.84 17.61V13.96H65.318C74.5647 13.96 82.546 15.8093 89.262 19.508C96.0753 23.2067 99.482 29.436 99.482 38.196C99.482 42.3813 98.168 46.226 95.54 49.73C93.0093 53.1367 89.9433 55.9107 86.342 58.052C82.7407 60.096 79.5287 61.2153 76.706 61.41C76.5113 61.41 76.414 61.4587 76.414 61.556C76.414 61.6533 76.5113 61.702 76.706 61.702ZM51.74 59.95H71.304C75.1973 59.95 79.188 58.636 83.276 56.008C87.364 53.38 89.408 48.0267 89.408 39.948C89.5053 31.6747 87.218 25.5427 82.546 21.552C77.9713 17.464 72.326 15.42 65.61 15.42C60.646 15.42 56.0227 15.8093 51.74 16.588V59.95ZM63.858 120.54C70.7687 120.54 76.6087 119.177 81.378 116.452C86.1473 113.629 89.7 109.882 92.036 105.21C94.4693 100.441 95.686 95.1847 95.686 89.442C95.686 83.2127 94.4207 78.1027 91.89 74.112C89.3593 70.1213 86.2447 67.25 82.546 65.498C78.8473 63.746 75.1 62.87 71.304 62.87H51.74V105.356C51.74 109.736 52.2753 113.045 53.346 115.284C54.514 117.523 55.9253 118.983 57.58 119.664C59.332 120.248 61.4247 120.54 63.858 120.54Z" fill="white"/>
</g>
<defs>
<clipPath id="clip0_403_1238">
<rect width="147" height="143" fill="white"/>
</clipPath>
</defs>
</svg>
